PathFileType	4	(X/Y/Z)	TVC_26_BWA1_walk_RCNL2025.trc
DataRate	CameraRate	NumFrames	NumMarkers	Units	OrigDataRate	OrigDataStartFrame	OrigNumFrames
100	100	4	27	mm	100	456	728
Frame#	Time	R_Shoulder			L_Shoulder			C7			J_Notch			R_Elbow			L_Elbow			R_Wrist			L_Wrist			R_Asis			L_Asis			R_Psis			L_Psis			Sacral			Thoracic			Sternum			R_Thigh_Lateral			R_Knee_Lateral			R_Shank_Lateral			R_Ankle_Lateral			R_Heel			R_Toe			L_Thigh_Lateral			L_Knee_Lateral			L_Shank_Lateral			L_Ankle_Lateral			L_Heel			L_Toe		
		X1	Y1	Z1	X2	Y2	Z2	X3	Y3	Z3	X4	Y4	Z4	X5	Y5	Z5	X6	Y6	Z6	X7	Y7	Z7	X8	Y8	Z8	X9	Y9	Z9	X10	Y10	Z10	X11	Y11	Z11	X12	Y12	Z12	X13	Y13	Z13	X14	Y14	Z14	X15	Y15	Z15	X16	Y16	Z16	X17	Y17	Z17	X18	Y18	Z18	X19	Y19	Z19	X20	Y20	Z20	X21	Y21	Z21	X22	Y22	Z22	X23	Y23	Z23	X24	Y24	Z24	X25	Y25	Z25	X26	Y26	Z26	X27	Y27	Z27
456	4.55000000	-240.829865	1366.899780	168.002029	-219.655777	1357.867920	-148.971039	-312.899048	1400.425171	8.040150	-162.715469	1299.674438	26.366421	-232.205704	1044.889648	325.735352	-239.752136	1024.210693	-237.801453	-98.132572	883.204376	372.174484	-131.604816	829.260956	-215.241348	-168.502106	959.602295	202.048355	-144.366364	947.398926	-84.659103	-373.567841	954.457520	110.928902	-356.988098	942.965637	-35.075554	-365.277969	948.711578	37.926674	-370.958496	1121.229370	13.401699	-110.473450	1066.175903	36.867123	-182.916275	568.519043	230.882172	-133.837112	449.058990	168.747238	-170.146530	266.482208	203.958237	-207.805130	73.316124	133.563248	-256.243896	57.729092	83.334030	-72.099342	41.991962	115.644615	-144.576401	582.221130	-144.321075	-179.121460	454.459656	-90.058670	-319.167938	287.573486	-122.259079	-462.893860	154.215439	-43.817928	-506.313568	172.929306	9.629821	-377.810944	47.395481	-23.957680
457	4.56000000	-235.985413	1367.875977	168.824661	-215.048431	1358.586426	-148.067627	-307.938110	1401.328003	8.992381	-158.095642	1300.347290	27.284004	-225.952927	1046.656372	327.672180	-234.905914	1024.746948	-236.398773	-89.301094	887.135986	373.628464	-125.630951	830.509216	-212.883415	-164.733002	959.952759	202.962341	-140.924942	947.917053	-83.886093	-369.837494	955.571472	111.796303	-353.408356	943.973389	-34.139828	-361.622925	949.772430	38.828238	-366.779205	1122.358765	14.506210	-106.433167	1066.598633	37.770157	-180.470596	568.832031	231.355286	-133.540344	449.038910	168.861755	-169.817429	266.364868	204.049713	-207.886200	73.169533	133.485565	-256.184479	57.763527	83.334061	-72.120682	42.007393	115.608696	-135.178833	583.913269	-145.617615	-165.750504	455.214996	-91.588196	-306.065521	289.331116	-123.921829	-451.813416	157.904099	-46.122814	-494.994324	176.816177	7.583581	-368.276642	49.816921	-27.672840
458	4.57000000	-231.102295	1368.773071	169.615906	-210.475555	1359.286621	-147.198929	-302.938324	1402.203491	9.946305	-153.489395	1300.969849	28.153357	-219.626022	1048.357788	329.545776	-230.160187	1025.261230	-235.022308	-80.409813	891.045746	374.959244	-119.646400	831.714233	-210.389435	-161.070541	960.205811	203.842346	-137.552200	948.325867	-83.247002	-366.206848	956.632141	112.582741	-349.919617	944.955811	-33.267345	-358.063232	950.793976	39.657698	-362.649475	1123.477173	15.566289	-102.449440	1066.934448	38.551365	-177.872330	569.078064	231.818771	-133.147369	449.008209	168.923538	-169.412415	266.232422	204.101379	-207.955826	73.027275	133.386932	-256.118500	57.775291	83.307686	-72.140770	42.028862	115.573364	-125.954483	585.755432	-146.833740	-152.401978	456.254669	-92.962029	-292.633942	291.089539	-125.523308	-439.718933	160.842819	-48.389977	-482.643860	179.526978	5.742163	-356.837097	52.298771	-32.108074
459	4.58000000	-226.182480	1369.591309	170.372772	-205.933563	1359.967285	-146.367615	-297.905090	1403.049805	10.896075	-148.896149	1301.541504	28.971987	-213.231781	1049.987671	331.343658	-225.510315	1025.754028	-233.677429	-71.474918	894.918640	376.153290	-113.730694	832.876984	-207.821068	-157.499573	960.368164	204.676407	-134.234497	948.654419	-82.745598	-362.664246	957.638306	113.288513	-346.509857	945.913208	-32.460709	-354.587051	951.775757	40.413902	-358.563934	1124.581543	16.578180	-98.517258	1067.188843	39.211227	-175.119888	569.272339	232.274979	-132.665604	448.966003	168.939011	-168.951813	266.086426	204.117950	-208.014038	72.894310	133.271637	-256.047028	57.765507	83.254852	-72.162025	42.056213	115.541855	-116.913345	587.760925	-147.959549	-139.139114	457.605347	-94.175018	-278.907379	292.845184	-127.091942	-426.579742	162.930038	-50.635437	-469.256195	180.976578	4.056132	-343.469086	54.703579	-37.132679
